solid OpenSCAD_Model
  facet normal 0 -0 -1
    outer loop
      vertex 0.1125 0.0525 -0.01
      vertex 0.136279 0.0075 -0.01
      vertex 0.101924 0.0419238 -0.01
    endloop
  endfacet
  facet normal 0 0 -1
    outer loop
      vertex 0.165 0 -0.01
      vertex 0.1125 -0.0525 -0.01
      vertex 0.136279 -0.0075 -0.01
    endloop
  endfacet
  facet normal 0 0 -1
    outer loop
      vertex 0.165 0 -0.01
      vertex 0.136279 0.0075 -0.01
      vertex 0.1125 0.0525 -0.01
    endloop
  endfacet
  facet normal 0 0 -1
    outer loop
      vertex 0.136279 -0.0075 -0.01
      vertex 0.1125 -0.0525 -0.01
      vertex 0.101846 -0.0419238 -0.01
    endloop
  endfacet
  facet normal 0 0 -1
    outer loop
      vertex 0.015 -0.0075 -0.01
      vertex 0.015 0.0075 -0.01
      vertex 0.136279 -0.0075 -0.01
    endloop
  endfacet
  facet normal -0 0 -1
    outer loop
      vertex 0.165 0 -0.01
      vertex 0.136279 -0.0075 -0.01
      vertex 0.136279 0.0075 -0.01
    endloop
  endfacet
  facet normal 0 0 -1
    outer loop
      vertex 0.136279 -0.0075 -0.01
      vertex 0.015 0.0075 -0.01
      vertex 0.136279 0.0075 -0.01
    endloop
  endfacet
  facet normal -0 0 1
    outer loop
      vertex 0.101924 0.0419238 0.01
      vertex 0.136279 0.0075 0.01
      vertex 0.1125 0.0525 0.01
    endloop
  endfacet
  facet normal -0 0 1
    outer loop
      vertex 0.136279 -0.0075 0.01
      vertex 0.1125 -0.0525 0.01
      vertex 0.165 0 0.01
    endloop
  endfacet
  facet normal 0 0 1
    outer loop
      vertex 0.1125 0.0525 0.01
      vertex 0.136279 0.0075 0.01
      vertex 0.165 0 0.01
    endloop
  endfacet
  facet normal -0 0 1
    outer loop
      vertex 0.101846 -0.0419238 0.01
      vertex 0.1125 -0.0525 0.01
      vertex 0.136279 -0.0075 0.01
    endloop
  endfacet
  facet normal 0 0 1
    outer loop
      vertex 0.136279 -0.0075 0.01
      vertex 0.015 0.0075 0.01
      vertex 0.015 -0.0075 0.01
    endloop
  endfacet
  facet normal 0 0 1
    outer loop
      vertex 0.136279 0.0075 0.01
      vertex 0.136279 -0.0075 0.01
      vertex 0.165 0 0.01
    endloop
  endfacet
  facet normal 0 0 1
    outer loop
      vertex 0.136279 0.0075 0.01
      vertex 0.015 0.0075 0.01
      vertex 0.136279 -0.0075 0.01
    endloop
  endfacet
  facet normal 0.707107 0.707107 0
    outer loop
      vertex 0.1125 0.0525 -0.01
      vertex 0.165 0 0.01
      vertex 0.165 0 -0.01
    endloop
  endfacet
  facet normal 0.707107 0.707107 -0
    outer loop
      vertex 0.1125 0.0525 -0.01
      vertex 0.1125 0.0525 0.01
      vertex 0.165 0 0.01
    endloop
  endfacet
  facet normal -0.707113 0.7071 0
    outer loop
      vertex 0.101924 0.0419238 -0.01
      vertex 0.1125 0.0525 0.01
      vertex 0.1125 0.0525 -0.01
    endloop
  endfacet
  facet normal -0.707113 0.7071 0
    outer loop
      vertex 0.101924 0.0419238 -0.01
      vertex 0.101924 0.0419238 0.01
      vertex 0.1125 0.0525 0.01
    endloop
  endfacet
  facet normal -0.707814 -0.706399 0
    outer loop
      vertex 0.136279 0.0075 -0.01
      vertex 0.101924 0.0419238 0.01
      vertex 0.101924 0.0419238 -0.01
    endloop
  endfacet
  facet normal -0.707814 -0.706399 0
    outer loop
      vertex 0.136279 0.0075 -0.01
      vertex 0.136279 0.0075 0.01
      vertex 0.101924 0.0419238 0.01
    endloop
  endfacet
  facet normal 0 1 0
    outer loop
      vertex 0.015 0.0075 -0.01
      vertex 0.136279 0.0075 0.01
      vertex 0.136279 0.0075 -0.01
    endloop
  endfacet
  facet normal 0 1 0
    outer loop
      vertex 0.015 0.0075 -0.01
      vertex 0.015 0.0075 0.01
      vertex 0.136279 0.0075 0.01
    endloop
  endfacet
  facet normal -1 0 0
    outer loop
      vertex 0.015 -0.0075 -0.01
      vertex 0.015 0.0075 0.01
      vertex 0.015 0.0075 -0.01
    endloop
  endfacet
  facet normal -1 0 0
    outer loop
      vertex 0.015 -0.0075 -0.01
      vertex 0.015 -0.0075 0.01
      vertex 0.015 0.0075 0.01
    endloop
  endfacet
  facet normal 0 -1 0
    outer loop
      vertex 0.136279 -0.0075 -0.01
      vertex 0.015 -0.0075 0.01
      vertex 0.015 -0.0075 -0.01
    endloop
  endfacet
  facet normal 0 -1 0
    outer loop
      vertex 0.136279 -0.0075 -0.01
      vertex 0.136279 -0.0075 0.01
      vertex 0.015 -0.0075 0.01
    endloop
  endfacet
  facet normal -0.707012 0.707201 0
    outer loop
      vertex 0.101846 -0.0419238 -0.01
      vertex 0.136279 -0.0075 0.01
      vertex 0.136279 -0.0075 -0.01
    endloop
  endfacet
  facet normal -0.707012 0.707201 0
    outer loop
      vertex 0.101846 -0.0419238 -0.01
      vertex 0.101846 -0.0419238 0.01
      vertex 0.136279 -0.0075 0.01
    endloop
  endfacet
  facet normal -0.704511 -0.709693 0
    outer loop
      vertex 0.1125 -0.0525 -0.01
      vertex 0.101846 -0.0419238 0.01
      vertex 0.101846 -0.0419238 -0.01
    endloop
  endfacet
  facet normal -0.704511 -0.709693 0
    outer loop
      vertex 0.1125 -0.0525 -0.01
      vertex 0.1125 -0.0525 0.01
      vertex 0.101846 -0.0419238 0.01
    endloop
  endfacet
  facet normal 0.707107 -0.707107 0
    outer loop
      vertex 0.165 0 -0.01
      vertex 0.1125 -0.0525 0.01
      vertex 0.1125 -0.0525 -0.01
    endloop
  endfacet
  facet normal 0.707107 -0.707107 0
    outer loop
      vertex 0.165 0 -0.01
      vertex 0.165 0 0.01
      vertex 0.1125 -0.0525 0.01
    endloop
  endfacet
endsolid OpenSCAD_Model
